<svg xmlns="http://www.w3.org/2000/svg" viewBox="0 0 512 512" width="512" height="512">
  <!-- Background -->
  <rect width="512" height="512" rx="80" fill="#1B3A6B"/>
  <!-- Urna eleitoral - corpo -->
  <rect x="136" y="200" width="240" height="200" rx="12" fill="#ffffff"/>
  <!-- Urna - tampa -->
  <rect x="116" y="170" width="280" height="40" rx="8" fill="#F5A623"/>
  <!-- Fenda do voto -->
  <rect x="206" y="190" width="100" height="14" rx="7" fill="#1B3A6B"/>
  <!-- Teclado da urna -->
  <rect x="156" y="250" width="200" height="120" rx="8" fill="#1B3A6B" opacity="0.15"/>
  <!-- Teclas numéricas -->
  <rect x="168" y="262" width="36" height="28" rx="4" fill="#1B3A6B" opacity="0.5"/>
  <rect x="214" y="262" width="36" height="28" rx="4" fill="#1B3A6B" opacity="0.5"/>
  <rect x="260" y="262" width="36" height="28" rx="4" fill="#1B3A6B" opacity="0.5"/>
  <rect x="168" y="300" width="36" height="28" rx="4" fill="#1B3A6B" opacity="0.5"/>
  <rect x="214" y="300" width="36" height="28" rx="4" fill="#1B3A6B" opacity="0.5"/>
  <rect x="260" y="300" width="36" height="28" rx="4" fill="#1B3A6B" opacity="0.5"/>
  <!-- Botão confirma (verde) -->
  <rect x="168" y="338" width="128" height="28" rx="4" fill="#27AE60" opacity="0.8"/>
  <!-- Checkmark no botão -->
  <polyline points="186,352 200,364 258,344" stroke="#fff" stroke-width="4" fill="none" stroke-linecap="round" stroke-linejoin="round"/>
  <!-- Texto 2026 -->
  <text x="256" y="155" text-anchor="middle" font-family="Arial, sans-serif" font-size="18" font-weight="bold" fill="#ffffff" opacity="0.9">2026</text>
</svg>
